<svg xmlns="http://www.w3.org/2000/svg" width="118.073" height="19.945" viewBox="0 0 118.073 19.945">
  <g id="safeguard" transform="translate(-86 -71.999)">
    <g id="Group_2302" data-name="Group 2302" transform="translate(86 71.999)">
      <path id="Path_45" data-name="Path 45" d="M137.987,467.183v-.412a.37.37,0,0,1,.41-.41h2.539c.265,0,.41.12.41.315v.339c0,1.233,1.233,2.3,3.19,2.3,1.837,0,2.514-.918,2.514-1.886,0-1.233-1.233-1.668-3.528-2.513-2.514-.871-5.418-2.006-5.418-5.2,0-2.972,2.443-4.788,5.9-4.788,3.723,0,6.351,2.079,6.351,5.2v.241a.37.37,0,0,1-.41.41h-2.532c-.265,0-.412-.1-.412-.241v-.241c0-1.26-1.088-2.443-3.117-2.443-1.547,0-2.418.676-2.418,1.812,0,1.26,1.065,1.692,3.746,2.635,2.2.8,5.246,1.739,5.246,5.027,0,2.949-2.394,4.907-6.188,4.907S137.987,470.248,137.987,467.183Z" transform="translate(-137.984 -452.297)" fill="#3a3a3a"/>
      <path id="Path_46" data-name="Path 46" d="M234.246,486.681v8.074a.37.37,0,0,1-.41.41h-2.588a.37.37,0,0,1-.41-.41v-.582c0-.122-.072-.145-.163-.049a4.3,4.3,0,0,1-3.31,1.233c-2.369,0-4.133-1.14-4.133-3.627,0-2.443,1.764-3.906,5.027-3.906H230.7a.139.139,0,0,0,.145-.145v-.508c0-1.039-.651-1.692-1.933-1.692-.968,0-1.62.339-1.837.919a.423.423,0,0,1-.489.315l-2.687-.342c-.241-.023-.41-.145-.386-.337.241-2.006,2.394-3.482,5.317-3.482C232.023,482.548,234.246,484.338,234.246,486.681Zm-3.409,4.158v-.845a.139.139,0,0,0-.145-.145h-1.717c-1.449,0-2.345.556-2.345,1.57,0,.871.7,1.4,1.717,1.4A2.228,2.228,0,0,0,230.837,490.839Z" transform="translate(-209.348 -475.422)" fill="#3a3a3a"/>
      <path id="Path_47" data-name="Path 47" d="M307.9,460.965v2.054a.371.371,0,0,1-.41.412h-2.2a.126.126,0,0,0-.144.143v9.017a.371.371,0,0,1-.41.409h-2.586a.37.37,0,0,1-.41-.41v-9.016a.126.126,0,0,0-.145-.143h-1.282a.37.37,0,0,1-.41-.412v-2.054a.37.37,0,0,1,.41-.412H301.6a.14.14,0,0,0,.145-.145V459.9c0-2.949,1.233-3.906,4.788-3.819h.8a.37.37,0,0,1,.412.41v1.717a.37.37,0,0,1-.412.412h-.676c-1.14.025-1.5.386-1.5,1.547v.241a.126.126,0,0,0,.144.145h2.2a.37.37,0,0,1,.4.412Z" transform="translate(-273.537 -453.258)" fill="#3a3a3a"/>
      <path id="Path_48" data-name="Path 48" d="M363.689,491.225c.194-.218.387-.242.58-.049l1.378,1.33a.4.4,0,0,1,.049.58,6.043,6.043,0,0,1-4.762,2.127,5.438,5.438,0,0,1-5.656-4.253,8.41,8.41,0,0,1-.287-2.249,8.727,8.727,0,0,1,.267-2.368,5.385,5.385,0,0,1,5.417-3.966c3.257,0,5.027,2.079,5.558,5.343.073.531.122,1.14.145,1.764a.372.372,0,0,1-.41.412h-7.431a.126.126,0,0,0-.147.143,4.018,4.018,0,0,0,.163.751,2.584,2.584,0,0,0,2.684,1.547,3.213,3.213,0,0,0,2.451-1.112Zm-5.076-4.473a3.125,3.125,0,0,0-.145.6c-.025.1.025.145.12.145H362.7c.1,0,.145-.049.122-.145a2.348,2.348,0,0,0-.1-.508,2.06,2.06,0,0,0-2.1-1.523,1.938,1.938,0,0,0-2.01,1.427Z" transform="translate(-319.648 -475.275)" fill="#3a3a3a"/>
      <path id="Path_49" data-name="Path 49" d="M437.05,466.289v-5.418c0-3.583,2.513-5.945,6.284-5.945s6.237,2.394,6.237,5.462v.047a.37.37,0,0,1-.41.412h-2.586c-.267,0-.412-.1-.412-.194v-.163a2.618,2.618,0,0,0-2.827-2.633,2.72,2.72,0,0,0-2.873,2.917v5.607a2.855,2.855,0,0,0,3,2.931,2.445,2.445,0,0,0,2.755-2.514v-1.058a.14.14,0,0,0-.145-.145h-2.565a.37.37,0,0,1-.412-.41V463.2a.37.37,0,0,1,.412-.412h5.656a.37.37,0,0,1,.41.412v3.07c0,3.722-2.488,5.97-6.237,5.97S437.05,469.839,437.05,466.289Z" transform="translate(-388.348 -452.298)" fill="#3fbb71"/>
      <path id="Path_50" data-name="Path 50" d="M535.058,483.707h2.588a.37.37,0,0,1,.41.41v11.6a.37.37,0,0,1-.41.411h-2.588a.37.37,0,0,1-.41-.411v-.651c0-.12-.1-.145-.163-.049a3.465,3.465,0,0,1-2.973,1.281,3.95,3.95,0,0,1-4.205-4.234v-7.949a.37.37,0,0,1,.41-.41h2.563a.37.37,0,0,1,.41.41v7.107a1.989,1.989,0,0,0,3.959.384v-7.491a.37.37,0,0,1,.407-.41Z" transform="translate(-463.904 -476.387)" fill="#3fbb71"/>
      <path id="Path_51" data-name="Path 51" d="M615.956,486.68v8.074a.37.37,0,0,1-.41.41H612.96a.37.37,0,0,1-.412-.41v-.581c0-.122-.072-.145-.162-.049a4.3,4.3,0,0,1-3.31,1.233c-2.369,0-4.133-1.14-4.133-3.627,0-2.443,1.764-3.906,5.027-3.906h2.443a.139.139,0,0,0,.145-.145v-.508c0-1.039-.651-1.692-1.933-1.692-.968,0-1.62.339-1.837.919a.423.423,0,0,1-.489.315l-2.69-.344c-.241-.023-.41-.145-.386-.337.241-2.006,2.394-3.482,5.317-3.482C613.735,482.547,615.956,484.337,615.956,486.68Zm-3.409,4.158v-.845a.139.139,0,0,0-.145-.145h-1.717c-1.449,0-2.344.556-2.344,1.57,0,.871.7,1.4,1.715,1.4A2.231,2.231,0,0,0,612.547,490.838Z" transform="translate(-528.897 -475.421)" fill="#3fbb71"/>
      <path id="Path_52" data-name="Path 52" d="M694.578,482.955a.4.4,0,0,1,.218.508L694.336,486c-.049.29-.194.315-.488.267a2.981,2.981,0,0,0-1.26-.049,2.142,2.142,0,0,0-2.079,2.151v6.479a.371.371,0,0,1-.412.41h-2.583a.37.37,0,0,1-.41-.41v-11.6a.37.37,0,0,1,.41-.41H690.1a.371.371,0,0,1,.412.41v.749c0,.122.072.162.163.073a3.029,3.029,0,0,1,2.605-1.4A2.5,2.5,0,0,1,694.578,482.955Z" transform="translate(-597.679 -475.515)" fill="#3fbb71"/>
      <path id="Path_53" data-name="Path 53" d="M745.873,456.1h2.592a.37.37,0,0,1,.412.41v16.1a.37.37,0,0,1-.412.409h-2.592a.37.37,0,0,1-.411-.41v-.651c0-.12-.1-.145-.163-.049a3.23,3.23,0,0,1-2.755,1.3,4.851,4.851,0,0,1-4.666-3.554,8.78,8.78,0,0,1-.41-2.9,8.567,8.567,0,0,1,.459-3,4.782,4.782,0,0,1,4.617-3.384,3.331,3.331,0,0,1,2.755,1.185c.072.1.162.047.162-.073v-4.977a.37.37,0,0,1,.411-.41Zm-.435,10.709a5.082,5.082,0,0,0-.509-2.49,1.847,1.847,0,0,0-1.619-.945,1.886,1.886,0,0,0-1.686.919,4.976,4.976,0,0,0-.58,2.537,5.064,5.064,0,0,0,.5,2.369,1.931,1.931,0,0,0,1.764,1.039,1.827,1.827,0,0,0,1.643-1.039,5.182,5.182,0,0,0,.481-2.39Z" transform="translate(-639.842 -453.274)" fill="#3fbb71"/>
      <path id="Path_54" data-name="Path 54" d="M811.793,438.9v.417a.109.109,0,0,1-.116.116h-1.441a.036.036,0,0,0-.037.039v4.6a.111.111,0,0,1-.117.116h-.5a.111.111,0,0,1-.115-.116v-4.606a.036.036,0,0,0-.038-.039h-1.368a.109.109,0,0,1-.116-.116v-.417a.111.111,0,0,1,.116-.116h3.622a.11.11,0,0,1,.108.119Z" transform="translate(-698.844 -438.778)" fill="#3a3a3a"/>
      <path id="Path_55" data-name="Path 55" d="M837.258,444.086v-5.174a.109.109,0,0,1,.115-.116h.518a.146.146,0,0,1,.139.078l1.3,2.068c.016.031.031.031.047,0l1.3-2.068a.145.145,0,0,1,.14-.078h.516a.109.109,0,0,1,.115.116v5.174a.109.109,0,0,1-.116.115h-.51a.109.109,0,0,1-.116-.115v-3.923c0-.037-.031-.045-.045-.014l-1.052,1.714a.15.15,0,0,1-.14.078h-.246a.15.15,0,0,1-.14-.078l-1.046-1.714c-.016-.031-.047-.023-.047.014v3.923a.111.111,0,0,1-.116.116h-.5a.109.109,0,0,1-.12-.115Z" transform="translate(-723.38 -438.793)" fill="#3a3a3a"/>
    </g>
  </g>
</svg>
