<svg xmlns="http://www.w3.org/2000/svg" width="105" height="17" viewBox="0 0 105 17">
    <defs>
        <style>
            .a{fill:#202656;}.b{fill:#04b4a5;}.c{fill:#2f348b;}.d{fill:#232a60;font-size:12px;font-family:OpenSans-Light,
            Open Sans;font-weight:300;letter-spacing:-0.02em;}
        </style>
    </defs>
    <g transform="translate(-245 -616.7)">
        <g transform="translate(309 620.48)">
            <path class="a" d="M52.542,53.328l-3.422-9.2h1.555l2.65,7.479,2.669-7.479H57.5l-3.47,9.2Z"
                  transform="translate(-49.12 -44.07)"/>
            <path class="a"
                  d="M310.486,53.328l-.012-6.87-2.71,5.907h-.946l-2.7-5.907v6.87H302.75v-9.2h1.717l2.829,6.113,2.818-6.113h1.7v9.2Z"
                  transform="translate(-279.746 -44.07)"/>
            <path class="a"
                  d="M464.434,43.476a5.093,5.093,0,0,1,1.394.692l-.6,1.365a5.419,5.419,0,0,0-1.325-.647,3.941,3.941,0,0,0-1.188-.211,1.815,1.815,0,0,0-1.023.249.807.807,0,0,0-.371.712.994.994,0,0,0,.242.679,1.781,1.781,0,0,0,.611.442,9.141,9.141,0,0,0,1.032.372,10.56,10.56,0,0,1,1.415.544,2.531,2.531,0,0,1,.934.8,2.3,2.3,0,0,1,.386,1.384,2.439,2.439,0,0,1-.413,1.405,2.657,2.657,0,0,1-1.146.934,4.075,4.075,0,0,1-1.678.327,4.769,4.769,0,0,1-1.9-.394,5.259,5.259,0,0,1-1.6-1.057l.628-1.339a4.9,4.9,0,0,0,1.427.988,3.584,3.584,0,0,0,1.474.351,2.031,2.031,0,0,0,1.181-.3.943.943,0,0,0,.422-.82,1,1,0,0,0-.251-.7,1.742,1.742,0,0,0-.623-.435q-.374-.157-1.032-.369a10.157,10.157,0,0,1-1.415-.538,2.57,2.57,0,0,1-.921-.773,2.2,2.2,0,0,1-.386-1.362,2.367,2.367,0,0,1,.394-1.356,2.531,2.531,0,0,1,1.1-.894,3.986,3.986,0,0,1,1.633-.314,5.153,5.153,0,0,1,1.607.256"
                  transform="translate(-424.943 -43.22)"/>
            <path class="b" d="M222.619,43.95h-.969l3.4,9.222h1.1Z" transform="translate(-205.533 -43.902)"/>
            <path class="b" d="M197.539,43.95h-.969l1.247,3.557,1.987,5.665h1.1L198.6,46.857Z"
                  transform="translate(-182.819 -43.902)"/>
            <path class="c" d="M147.343,43.95h.969l-3.4,9.222H143.89Z" transform="translate(-135.045 -43.902)"/>
            <path class="c" d="M172.453,43.95h.969l-3.4,9.222H169Z" transform="translate(-157.811 -43.902)"/>
        </g>
        <text class="d" transform="translate(245 629.7)">
            <tspan x="0" y="0">Powered by</tspan>
        </text>
    </g>
</svg>