<svg xmlns="http://www.w3.org/2000/svg" width="64.359" height="10.872" viewBox="0 0 64.359 10.872">
    <defs>
        <style>.a{fill:#3a3a3a;}.b{fill:#3fbb71;}</style>
    </defs>
    <g transform="translate(-86 -71.999)">
        <g transform="translate(86 71.999)">
            <path class="a"
                  d="M137.985,461.607v-.225a.2.2,0,0,1,.224-.224h1.384c.145,0,.224.066.224.172v.185c0,.672.672,1.252,1.739,1.252,1,0,1.37-.5,1.37-1.028,0-.672-.672-.909-1.923-1.37-1.37-.475-2.953-1.094-2.953-2.834,0-1.62,1.332-2.61,3.215-2.61,2.029,0,3.462,1.133,3.462,2.832v.132a.2.2,0,0,1-.224.224h-1.38c-.145,0-.225-.053-.225-.132v-.132c0-.687-.593-1.332-1.7-1.332-.843,0-1.318.368-1.318.988,0,.687.581.922,2.042,1.436,1.2.434,2.859.948,2.859,2.74,0,1.608-1.3,2.675-3.373,2.675S137.985,463.277,137.985,461.607Z"
                  transform="translate(-137.984 -453.493)"/>
            <path class="a"
                  d="M229.235,484.8v4.4a.2.2,0,0,1-.224.224H227.6a.2.2,0,0,1-.224-.224v-.317c0-.067-.039-.079-.089-.027a2.341,2.341,0,0,1-1.8.672c-1.291,0-2.253-.622-2.253-1.977,0-1.332.961-2.129,2.74-2.129H227.3a.076.076,0,0,0,.079-.079v-.277c0-.566-.355-.922-1.053-.922-.527,0-.883.185-1,.5a.231.231,0,0,1-.266.172l-1.464-.186c-.132-.012-.224-.079-.211-.184.132-1.094,1.3-1.9,2.9-1.9C228.023,482.55,229.235,483.526,229.235,484.8Zm-1.858,2.266v-.461a.076.076,0,0,0-.079-.079h-.936c-.79,0-1.278.3-1.278.856,0,.475.383.764.936.764A1.214,1.214,0,0,0,227.377,487.069Z"
                  transform="translate(-215.664 -478.666)"/>
            <path class="a"
                  d="M304.267,458.741v1.119a.2.2,0,0,1-.224.225h-1.2a.069.069,0,0,0-.078.078v4.915a.2.2,0,0,1-.224.223h-1.41a.2.2,0,0,1-.224-.224v-4.914a.069.069,0,0,0-.079-.078h-.7a.2.2,0,0,1-.224-.225v-1.119a.2.2,0,0,1,.224-.225h.7a.076.076,0,0,0,.079-.079v-.277c0-1.608.672-2.129,2.61-2.082h.434a.2.2,0,0,1,.225.224v.936a.2.2,0,0,1-.225.225h-.368c-.622.013-.817.211-.817.843v.132a.069.069,0,0,0,.078.079h1.2a.2.2,0,0,1,.22.225Z"
                  transform="translate(-285.534 -454.54)"/>
            <path class="a"
                  d="M359.731,487.2c.106-.119.211-.132.316-.027l.751.725a.216.216,0,0,1,.027.316,3.294,3.294,0,0,1-2.6,1.159,2.964,2.964,0,0,1-3.083-2.318,4.584,4.584,0,0,1-.156-1.226,4.756,4.756,0,0,1,.146-1.291,2.935,2.935,0,0,1,2.953-2.162c1.775,0,2.74,1.133,3.03,2.913.04.289.067.621.079.961a.2.2,0,0,1-.224.225h-4.05a.069.069,0,0,0-.08.078,2.187,2.187,0,0,0,.089.409,1.408,1.408,0,0,0,1.463.843,1.751,1.751,0,0,0,1.336-.606Zm-2.767-2.438a1.706,1.706,0,0,0-.079.329c-.013.052.013.079.066.079h2.24c.053,0,.079-.027.067-.079a1.278,1.278,0,0,0-.053-.277,1.123,1.123,0,0,0-1.146-.83,1.056,1.056,0,0,0-1.1.778Z"
                  transform="translate(-335.725 -478.504)"/>
            <path class="b"
                  d="M437.05,461.12v-2.953a3.148,3.148,0,0,1,3.426-3.241c2.056,0,3.4,1.3,3.4,2.977v.026a.2.2,0,0,1-.224.225h-1.41c-.146,0-.225-.053-.225-.106v-.089a1.427,1.427,0,0,0-1.541-1.435,1.482,1.482,0,0,0-1.566,1.59v3.056a1.556,1.556,0,0,0,1.633,1.6,1.332,1.332,0,0,0,1.5-1.37v-.577a.076.076,0,0,0-.079-.079h-1.4a.2.2,0,0,1-.225-.224v-1.084a.2.2,0,0,1,.225-.225h3.083a.2.2,0,0,1,.224.225v1.673a3.1,3.1,0,0,1-3.4,3.254A3.164,3.164,0,0,1,437.05,461.12Z"
                  transform="translate(-410.503 -453.493)"/>
            <path class="b"
                  d="M531.531,483.705h1.411a.2.2,0,0,1,.224.224v6.325a.2.2,0,0,1-.224.224h-1.411a.2.2,0,0,1-.224-.224V489.9c0-.066-.053-.079-.089-.027a1.888,1.888,0,0,1-1.621.7,2.153,2.153,0,0,1-2.292-2.308v-4.333a.2.2,0,0,1,.224-.224h1.4a.2.2,0,0,1,.224.224V487.8a1.084,1.084,0,0,0,2.158.209v-4.083a.2.2,0,0,1,.222-.224Z"
                  transform="translate(-492.746 -479.716)"/>
            <path class="b"
                  d="M610.946,484.8v4.4a.2.2,0,0,1-.224.224h-1.41a.2.2,0,0,1-.225-.224v-.317c0-.067-.039-.079-.089-.027a2.341,2.341,0,0,1-1.8.672c-1.291,0-2.253-.622-2.253-1.977,0-1.332.961-2.129,2.74-2.129h1.332a.076.076,0,0,0,.079-.079v-.277c0-.566-.355-.922-1.053-.922-.527,0-.883.185-1,.5a.231.231,0,0,1-.266.172l-1.466-.187c-.131-.012-.224-.079-.21-.184.131-1.094,1.3-1.9,2.9-1.9C609.735,482.548,610.946,483.524,610.946,484.8Zm-1.858,2.266v-.461a.076.076,0,0,0-.079-.079h-.936c-.79,0-1.277.3-1.277.856,0,.475.382.764.935.764A1.216,1.216,0,0,0,609.088,487.067Z"
                  transform="translate(-563.492 -478.664)"/>
            <path class="b"
                  d="M691.177,482.821a.22.22,0,0,1,.119.277l-.25,1.383c-.026.158-.106.172-.266.146a1.624,1.624,0,0,0-.687-.026,1.168,1.168,0,0,0-1.133,1.173V489.3a.2.2,0,0,1-.224.224h-1.408a.2.2,0,0,1-.224-.224v-6.325a.2.2,0,0,1,.224-.224h1.41a.2.2,0,0,1,.225.224v.408c0,.067.039.089.089.04a1.651,1.651,0,0,1,1.42-.764A1.362,1.362,0,0,1,691.177,482.821Z"
                  transform="translate(-638.36 -478.766)"/>
            <path class="b"
                  d="M742.048,456.1h1.413a.2.2,0,0,1,.225.224V465.1a.2.2,0,0,1-.225.223h-1.413a.2.2,0,0,1-.224-.224v-.355c0-.066-.053-.079-.089-.027a1.761,1.761,0,0,1-1.5.71,2.644,2.644,0,0,1-2.543-1.937,4.785,4.785,0,0,1-.224-1.579,4.669,4.669,0,0,1,.25-1.634,2.606,2.606,0,0,1,2.517-1.845,1.815,1.815,0,0,1,1.5.646c.039.053.089.026.089-.04v-2.713a.2.2,0,0,1,.224-.224Zm-.237,5.837a2.769,2.769,0,0,0-.277-1.357,1.007,1.007,0,0,0-.882-.515,1.028,1.028,0,0,0-.919.5,2.712,2.712,0,0,0-.316,1.383,2.76,2.76,0,0,0,.275,1.291,1.053,1.053,0,0,0,.961.566,1,1,0,0,0,.9-.566,2.825,2.825,0,0,0,.262-1.3Z"
                  transform="translate(-684.253 -454.557)"/>
            <path class="a"
                  d="M810.043,438.843v.227a.059.059,0,0,1-.063.063h-.786a.02.02,0,0,0-.02.021v2.508a.06.06,0,0,1-.064.063h-.271a.06.06,0,0,1-.063-.063v-2.51a.02.02,0,0,0-.021-.021h-.746a.059.059,0,0,1-.063-.063v-.227a.06.06,0,0,1,.063-.063h1.974a.06.06,0,0,1,.059.065Z"
                  transform="translate(-748.477 -438.778)"/>
            <path class="a"
                  d="M837.257,441.68v-2.82a.059.059,0,0,1,.063-.063h.282a.08.08,0,0,1,.076.043l.71,1.127c.009.017.017.017.026,0l.71-1.127a.079.079,0,0,1,.076-.043h.281a.059.059,0,0,1,.063.063v2.82a.059.059,0,0,1-.063.063H839.2a.059.059,0,0,1-.063-.063v-2.139c0-.02-.017-.025-.025-.008l-.573.934a.082.082,0,0,1-.076.043h-.134a.082.082,0,0,1-.076-.043l-.57-.934c-.009-.017-.026-.012-.026.008v2.139a.06.06,0,0,1-.063.063h-.275a.059.059,0,0,1-.066-.063Z"
                  transform="translate(-775.185 -438.794)"/>
        </g>
    </g>
</svg>